Ruda-Black.ufo
<glyph name="comma" format="2">
  <advance width="299"/>
  <unicode hex="002C"/>
  <outline>
    <contour>
      <point x="134" y="-175" type="line"/>
      <point x="181" y="-141"/>
      <point x="226" y="-78"/>
      <point x="226" y="41" type="curve" smooth="yes"/>
      <point x="226" y="132" type="line"/>
      <point x="76" y="132" type="line"/>
      <point x="76" y="-1" type="line" smooth="yes"/>
      <point x="76" y="-60"/>
      <point x="65" y="-100"/>
      <point x="44" y="-131" type="curve"/>
    </contour>
  </outline>
</glyph>
<glyph name="hyphen" format="2">
  <advance width="306"/>
  <unicode hex="002D"/>
  <outline>
    <contour>
      <point x="24" y="261" type="line"/>
      <point x="282" y="261" type="line"/>
      <point x="282" y="393" type="line"/>
      <point x="24" y="393" type="line"/>
    </contour>
  </outline>
</glyph>
<glyph name="seven" format="2">
  <advance width="511"/>
  <unicode hex="0037"/>
  <outline>
    <contour>
      <point x="208" y="-9" type="line"/>
      <point x="510" y="612" type="line"/>
      <point x="510" y="703" type="line"/>
      <point x="2" y="703" type="line"/>
      <point x="2" y="570" type="line"/>
      <point x="340" y="578" type="line"/>
      <point x="340" y="572" type="line"/>
      <point x="44" y="4" type="line"/>
    </contour>
  </outline>
</glyph>
<glyph name="C" format="2">
  <advance width="618"/>
  <unicode hex="0043"/>
  <anchor x="309" y="0" name="bottom"/>
  <anchor x="345" y="703" name="top"/>
  <outline>
    <contour>
      <point x="339" y="-13" type="curve" smooth="yes"/>
      <point x="480" y="-13"/>
      <point x="583" y="56"/>
      <point x="583" y="56" type="curve"/>
      <point x="538" y="175" type="line"/>
      <point x="538" y="175"/>
      <point x="417" y="122"/>
      <point x="333" y="122" type="curve" smooth="yes"/>
      <point x="298" y="122"/>
      <point x="276" y="129"/>
      <point x="262" y="140" type="curve" smooth="yes"/>
      <point x="239" y="157"/>
      <point x="213" y="224"/>
      <point x="213" y="342" type="curve" smooth="yes"/>
      <point x="213" y="484"/>
      <point x="232" y="539"/>
      <point x="258" y="560" type="curve" smooth="yes"/>
      <point x="273" y="572"/>
      <point x="302" y="578"/>
      <point x="357" y="578" type="curve" smooth="yes"/>
      <point x="389" y="578"/>
      <point x="505" y="567"/>
      <point x="538" y="563" type="curve"/>
      <point x="555" y="691" type="line"/>
      <point x="504" y="704"/>
      <point x="402" y="716"/>
      <point x="351" y="716" type="curve" smooth="yes"/>
      <point x="179" y="716"/>
      <point x="50" y="652"/>
      <point x="50" y="345" type="curve" smooth="yes"/>
      <point x="50" y="85"/>
      <point x="171" y="-13"/>
    </contour>
  </outline>
</glyph>
<glyph name="F" format="2">
  <advance width="537"/>
  <unicode hex="0046"/>
  <outline>
    <contour>
      <point x="83" y="0" type="line"/>
      <point x="240" y="0" type="line"/>
      <point x="234" y="317" type="line"/>
      <point x="165" y="287" type="line"/>
      <point x="473" y="287" type="line"/>
      <point x="473" y="418" type="line"/>
      <point x="165" y="418" type="line"/>
      <point x="235" y="399" type="line"/>
      <point x="235" y="642" type="line"/>
      <point x="165" y="573" type="line"/>
      <point x="505" y="569" type="line"/>
      <point x="505" y="703" type="line"/>
      <point x="83" y="703" type="line"/>
    </contour>
  </outline>
</glyph>
<glyph name="N" format="2">
  <advance width="716"/>
  <unicode hex="004E"/>
  <outline>
    <contour>
      <point x="83" y="0" type="line"/>
      <point x="226" y="0" type="line"/>
      <point x="212" y="515" type="line"/>
      <point x="218" y="515" type="line"/>
      <point x="434" y="0" type="line"/>
      <point x="635" y="0" type="line"/>
      <point x="635" y="703" type="line"/>
      <point x="492" y="703" type="line"/>
      <point x="506" y="189" type="line"/>
      <point x="500" y="189" type="line"/>
      <point x="284" y="703" type="line"/>
      <point x="83" y="703" type="line"/>
    </contour>
  </outline>
</glyph>
<glyph name="Q" format="2">
  <advance width="723"/>
  <unicode hex="0051"/>
  <outline>
    <contour>
      <point x="654" y="-95" type="line"/>
      <point x="696" y="31" type="line"/>
      <point x="561" y="62" type="line"/>
      <point x="564" y="39" type="line"/>
      <point x="564" y="138" type="line"/>
      <point x="539" y="43" type="line"/>
      <point x="603" y="103"/>
      <point x="650" y="189"/>
      <point x="650" y="352" type="curve" smooth="yes"/>
      <point x="650" y="648"/>
      <point x="514" y="716"/>
      <point x="351" y="716" type="curve" smooth="yes"/>
      <point x="186" y="716"/>
      <point x="50" y="649"/>
      <point x="50" y="353" type="curve" smooth="yes"/>
      <point x="50" y="58"/>
      <point x="185" y="-13"/>
      <point x="343" y="-13" type="curve" smooth="yes"/>
      <point x="387" y="-13"/>
      <point x="430" y="-8"/>
      <point x="470" y="5" type="curve"/>
      <point x="361" y="19" type="line"/>
    </contour>
    <contour>
      <point x="350" y="125" type="curve" smooth="yes"/>
      <point x="255" y="125"/>
      <point x="213" y="157"/>
      <point x="213" y="351" type="curve" smooth="yes"/>
      <point x="213" y="545"/>
      <point x="253" y="578"/>
      <point x="351" y="578" type="curve" smooth="yes"/>
      <point x="447" y="578"/>
      <point x="487" y="545"/>
      <point x="487" y="351" type="curve" smooth="yes"/>
      <point x="487" y="157"/>
      <point x="445" y="125"/>
    </contour>
  </outline>
</glyph>
<glyph name="R" format="2">
  <advance width="695"/>
  <unicode hex="0052"/>
  <outline>
    <contour>
      <point x="83" y="0" type="line"/>
      <point x="240" y="0" type="line"/>
      <point x="240" y="252" type="line"/>
      <point x="327" y="250" type="line"/>
      <point x="450" y="0" type="line"/>
      <point x="624" y="0" type="line"/>
      <point x="471" y="266" type="line"/>
      <point x="471" y="272" type="line"/>
      <point x="564" y="303"/>
      <point x="613" y="371"/>
      <point x="613" y="482" type="curve" smooth="yes"/>
      <point x="613" y="653"/>
      <point x="511" y="716"/>
      <point x="349" y="716" type="curve" smooth="yes"/>
      <point x="257" y="716"/>
      <point x="100" y="703"/>
      <point x="83" y="702" type="curve"/>
      <point x="87" y="326" type="line"/>
    </contour>
    <contour>
      <point x="352" y="375" type="curve" smooth="yes"/>
      <point x="318" y="375"/>
      <point x="279" y="378"/>
      <point x="240" y="382" type="curve"/>
      <point x="240" y="585" type="line"/>
      <point x="270" y="589"/>
      <point x="300" y="591"/>
      <point x="353" y="591" type="curve" smooth="yes"/>
      <point x="389" y="591"/>
      <point x="413" y="587"/>
      <point x="425" y="579" type="curve" smooth="yes"/>
      <point x="439" y="570"/>
      <point x="450" y="546"/>
      <point x="450" y="481" type="curve" smooth="yes"/>
      <point x="450" y="409"/>
      <point x="433" y="375"/>
    </contour>
  </outline>
</glyph>
<glyph name="W" format="2">
  <advance width="838"/>
  <unicode hex="0057"/>
  <anchor x="428" y="0" name="bottom"/>
  <anchor x="428" y="703" name="top"/>
  <outline>
    <contour>
      <point x="138" y="0" type="line"/>
      <point x="334" y="0" type="line"/>
      <point x="416" y="387" type="line"/>
      <point x="422" y="387" type="line"/>
      <point x="504" y="0" type="line"/>
      <point x="700" y="0" type="line"/>
      <point x="804" y="703" type="line"/>
      <point x="646" y="703" type="line"/>
      <point x="595" y="161" type="line"/>
      <point x="589" y="161" type="line"/>
      <point x="511" y="536" type="line"/>
      <point x="327" y="536" type="line"/>
      <point x="249" y="161" type="line"/>
      <point x="243" y="161" type="line"/>
      <point x="192" y="703" type="line"/>
      <point x="34" y="703" type="line"/>
    </contour>
  </outline>
</glyph>
<glyph name="underscore" format="2">
  <advance width="570"/>
  <unicode hex="005F"/>
  <outline>
    <contour>
      <point x="4" y="-166" type="line"/>
      <point x="566" y="-166" type="line"/>
      <point x="566" y="-68" type="line"/>
      <point x="4" y="-68" type="line"/>
    </contour>
  </outline>
</glyph>
<glyph name="d" format="2">
  <advance width="628"/>
  <unicode hex="0064"/>
  <anchor x="314" y="0" name="bottom"/>
  <anchor x="314" y="294" name="center"/>
  <anchor x="314" y="761" name="top"/>
  <anchor x="608" y="588" name="topright"/>
  <outline>
    <contour>
      <point x="251" y="-13" type="curve" smooth="yes"/>
      <point x="327" y="-13"/>
      <point x="392" y="30"/>
      <point x="432" y="57" type="curve"/>
      <point x="438" y="57" type="line"/>
      <point x="454" y="0" type="line"/>
      <point x="554" y="0" type="line"/>
      <point x="554" y="761" type="line"/>
      <point x="399" y="761" type="line"/>
      <point x="399" y="586" type="line"/>
      <point x="399" y="586"/>
      <point x="340" y="601"/>
      <point x="285" y="601" type="curve" smooth="yes"/>
      <point x="179" y="601"/>
      <point x="48" y="544"/>
      <point x="48" y="290" type="curve" smooth="yes"/>
      <point x="48" y="79"/>
      <point x="139" y="-13"/>
    </contour>
    <contour>
      <point x="278" y="113" type="curve" smooth="yes"/>
      <point x="262" y="113"/>
      <point x="245" y="116"/>
      <point x="234" y="125" type="curve" smooth="yes"/>
      <point x="223" y="134"/>
      <point x="206" y="159"/>
      <point x="206" y="287" type="curve" smooth="yes"/>
      <point x="206" y="400"/>
      <point x="221" y="443"/>
      <point x="235" y="458" type="curve" smooth="yes"/>
      <point x="245" y="469"/>
      <point x="261" y="474"/>
      <point x="289" y="474" type="curve" smooth="yes"/>
      <point x="342" y="474"/>
      <point x="399" y="453"/>
      <point x="399" y="453" type="curve"/>
      <point x="399" y="151" type="line"/>
      <point x="399" y="151"/>
      <point x="324" y="113"/>
    </contour>
  </outline>
</glyph>
<glyph name="f" format="2">
  <advance width="382"/>
  <unicode hex="0066"/>
  <outline>
    <contour>
      <point x="96" y="0" type="line"/>
      <point x="251" y="0" type="line"/>
      <point x="251" y="440" type="line"/>
      <point x="383" y="440" type="line"/>
      <point x="383" y="559" type="line"/>
      <point x="251" y="559" type="line"/>
      <point x="253" y="643"/>
      <point x="268" y="651"/>
      <point x="310" y="651" type="curve" smooth="yes"/>
      <point x="346" y="651"/>
      <point x="393" y="647"/>
      <point x="393" y="647" type="curve"/>
      <point x="404" y="770" type="line"/>
      <point x="404" y="770"/>
      <point x="347" y="774"/>
      <point x="313" y="774" type="curve" smooth="yes"/>
      <point x="195" y="774"/>
      <point x="110" y="726"/>
      <point x="97" y="554" type="curve"/>
      <point x="28" y="540" type="line"/>
      <point x="28" y="443" type="line"/>
      <point x="96" y="443" type="line"/>
    </contour>
  </outline>
</glyph>
<glyph name="h" format="2">
  <advance width="627"/>
  <unicode hex="0068"/>
  <anchor x="314" y="381" name="center"/>
  <outline>
    <contour>
      <point x="74" y="0" type="line"/>
      <point x="229" y="0" type="line"/>
      <point x="229" y="453" type="line"/>
      <point x="206" y="421" type="line"/>
      <point x="215" y="427"/>
      <point x="310" y="468"/>
      <point x="351" y="468" type="curve" smooth="yes"/>
      <point x="367" y="468"/>
      <point x="383" y="462"/>
      <point x="390" y="453" type="curve" smooth="yes"/>
      <point x="400" y="440"/>
      <point x="406" y="410"/>
      <point x="406" y="358" type="curve" smooth="yes"/>
      <point x="406" y="0" type="line"/>
      <point x="561" y="0" type="line"/>
      <point x="561" y="385" type="line" smooth="yes"/>
      <point x="561" y="508"/>
      <point x="532" y="603"/>
      <point x="410" y="603" type="curve" smooth="yes"/>
      <point x="324" y="603"/>
      <point x="234" y="553"/>
      <point x="206" y="539" type="curve"/>
      <point x="229" y="481" type="line"/>
      <point x="229" y="761" type="line"/>
      <point x="74" y="761" type="line"/>
    </contour>
  </outline>
</glyph>
<glyph name="k" format="2">
  <advance width="600"/>
  <unicode hex="006B"/>
  <anchor x="311" y="0" name="bottom"/>
  <anchor x="293" y="588" name="top"/>
  <outline>
    <contour>
      <point x="441" y="0" type="line"/>
      <point x="631" y="0" type="line"/>
      <point x="385" y="314" type="line"/>
      <point x="385" y="319" type="line"/>
      <point x="607" y="588" type="line"/>
      <point x="419" y="588" type="line"/>
      <point x="225" y="313" type="line"/>
    </contour>
    <contour>
      <point x="229" y="0" type="line"/>
      <point x="229" y="761" type="line"/>
      <point x="74" y="761" type="line"/>
      <point x="78" y="321" type="line"/>
      <point x="74" y="0" type="line"/>
    </contour>
  </outline>
</glyph>
<glyph name="l" format="2">
  <advance width="303"/>
  <unicode hex="006C"/>
  <anchor x="152" y="381" name="center"/>
  <anchor x="283" y="761" name="topright"/>
  <outline>
    <contour>
      <point x="74" y="0" type="line"/>
      <point x="229" y="0" type="line"/>
      <point x="229" y="761" type="line"/>
      <point x="74" y="761" type="line"/>
    </contour>
  </outline>
</glyph>
<glyph name="m" format="2">
  <advance width="956"/>
  <unicode hex="006D"/>
  <anchor x="478" y="0" name="bottom"/>
  <anchor x="478" y="588" name="top"/>
  <outline>
    <contour>
      <point x="79" y="0" type="line"/>
      <point x="234" y="0" type="line"/>
      <point x="234" y="426" type="line"/>
      <point x="265" y="448"/>
      <point x="316" y="468"/>
      <point x="352" y="468" type="curve" smooth="yes"/>
      <point x="366" y="468"/>
      <point x="382" y="465"/>
      <point x="392" y="453" type="curve" smooth="yes"/>
      <point x="405" y="437"/>
      <point x="406" y="413"/>
      <point x="406" y="358" type="curve" smooth="yes"/>
      <point x="406" y="0" type="line"/>
      <point x="561" y="0" type="line"/>
      <point x="561" y="375" type="line" smooth="yes"/>
      <point x="561" y="392"/>
      <point x="560" y="409"/>
      <point x="559" y="425" type="curve"/>
      <point x="590" y="446"/>
      <point x="641" y="468"/>
      <point x="677" y="468" type="curve" smooth="yes"/>
      <point x="696" y="468"/>
      <point x="711" y="462"/>
      <point x="719" y="452" type="curve" smooth="yes"/>
      <point x="732" y="436"/>
      <point x="733" y="413"/>
      <point x="733" y="358" type="curve" smooth="yes"/>
      <point x="733" y="0" type="line"/>
      <point x="890" y="0" type="line"/>
      <point x="890" y="385" type="line" smooth="yes"/>
      <point x="890" y="510"/>
      <point x="856" y="603"/>
      <point x="733" y="603" type="curve" smooth="yes"/>
      <point x="653" y="603"/>
      <point x="587" y="561"/>
      <point x="534" y="527" type="curve"/>
      <point x="511" y="573"/>
      <point x="472" y="603"/>
      <point x="405" y="603" type="curve" smooth="yes"/>
      <point x="322" y="603"/>
      <point x="250" y="558"/>
      <point x="202" y="529" type="curve"/>
      <point x="196" y="529" type="line"/>
      <point x="178" y="588" type="line"/>
      <point x="79" y="588" type="line"/>
    </contour>
  </outline>
</glyph>
<glyph name="p" format="2">
  <advance width="630"/>
  <unicode hex="0070"/>
  <outline>
    <contour>
      <point x="74" y="-166" type="line"/>
      <point x="229" y="-166" type="line"/>
      <point x="229" y="-4" type="line"/>
      <point x="229" y="-4"/>
      <point x="290" y="-13"/>
      <point x="335" y="-13" type="curve" smooth="yes"/>
      <point x="450" y="-13"/>
      <point x="582" y="45"/>
      <point x="582" y="304" type="curve" smooth="yes"/>
      <point x="582" y="513"/>
      <point x="496" y="601"/>
      <point x="382" y="601" type="curve" smooth="yes"/>
      <point x="304" y="601"/>
      <point x="240" y="559"/>
      <point x="196" y="528" type="curve"/>
      <point x="191" y="528" type="line"/>
      <point x="173" y="588" type="line"/>
      <point x="74" y="588" type="line"/>
    </contour>
    <contour>
      <point x="329" y="113" type="curve" smooth="yes"/>
      <point x="277" y="113"/>
      <point x="229" y="127"/>
      <point x="229" y="127" type="curve"/>
      <point x="229" y="430" type="line"/>
      <point x="229" y="436"/>
      <point x="303" y="474"/>
      <point x="358" y="474" type="curve" smooth="yes"/>
      <point x="385" y="474"/>
      <point x="397" y="467"/>
      <point x="405" y="455" type="curve" smooth="yes"/>
      <point x="418" y="436"/>
      <point x="424" y="396"/>
      <point x="424" y="308" type="curve" smooth="yes"/>
      <point x="424" y="177"/>
      <point x="408" y="139"/>
      <point x="388" y="126" type="curve"/>
      <point x="374" y="117"/>
      <point x="360" y="113"/>
    </contour>
  </outline>
</glyph>
<glyph name="s" format="2">
  <advance width="537"/>
  <unicode hex="0073"/>
  <outline>
    <contour>
      <point x="282" y="-13" type="curve" smooth="yes"/>
      <point x="425" y="-13"/>
      <point x="503" y="66"/>
      <point x="503" y="183" type="curve" smooth="yes"/>
      <point x="503" y="320"/>
      <point x="400" y="339"/>
      <point x="314" y="364" type="curve" smooth="yes"/>
      <point x="252" y="382"/>
      <point x="198" y="395"/>
      <point x="198" y="440" type="curve" smooth="yes"/>
      <point x="198" y="455"/>
      <point x="204" y="463"/>
      <point x="209" y="467" type="curve" smooth="yes"/>
      <point x="215" y="472"/>
      <point x="226" y="477"/>
      <point x="259" y="477" type="curve" smooth="yes"/>
      <point x="340" y="477"/>
      <point x="455" y="447"/>
      <point x="455" y="447" type="curve"/>
      <point x="478" y="567" type="line"/>
      <point x="442" y="579"/>
      <point x="358" y="601"/>
      <point x="270" y="601" type="curve" smooth="yes"/>
      <point x="114" y="601"/>
      <point x="47" y="531"/>
      <point x="47" y="426" type="curve" smooth="yes"/>
      <point x="47" y="296"/>
      <point x="149" y="269"/>
      <point x="234" y="243" type="curve" smooth="yes"/>
      <point x="299" y="224"/>
      <point x="352" y="214"/>
      <point x="352" y="164" type="curve" smooth="yes"/>
      <point x="352" y="146"/>
      <point x="346" y="131"/>
      <point x="335" y="123" type="curve" smooth="yes"/>
      <point x="327" y="117"/>
      <point x="313" y="113"/>
      <point x="291" y="113" type="curve" smooth="yes"/>
      <point x="207" y="113"/>
      <point x="80" y="167"/>
      <point x="80" y="167" type="curve"/>
      <point x="42" y="45" type="line"/>
      <point x="42" y="45"/>
      <point x="159" y="-13"/>
    </contour>
  </outline>
</glyph>
<glyph name="v" format="2">
  <advance width="544"/>
  <unicode hex="0076"/>
  <outline>
    <contour>
      <point x="180" y="0" type="line"/>
      <point x="364" y="0" type="line"/>
      <point x="535" y="588" type="line"/>
      <point x="375" y="588" type="line"/>
      <point x="275" y="132" type="line"/>
      <point x="269" y="132" type="line"/>
      <point x="169" y="588" type="line"/>
      <point x="9" y="588" type="line"/>
    </contour>
  </outline>
</glyph>
<glyph name="bar" format="2">
  <advance width="280"/>
  <unicode hex="007C"/>
  <outline>
    <contour>
      <point x="81" y="-94" type="line"/>
      <point x="199" y="-94" type="line"/>
      <point x="199" y="774" type="line"/>
      <point x="81" y="774" type="line"/>
    </contour>
  </outline>
</glyph>
<glyph name="cent" format="2">
  <advance width="543"/>
  <unicode hex="00A2"/>
  <outline>
    <contour>
      <point x="251" y="-116" type="line"/>
      <point x="375" y="-116" type="line"/>
      <point x="375" y="-8" type="line"/>
      <point x="464" y="5"/>
      <point x="524" y="48"/>
      <point x="524" y="48" type="curve"/>
      <point x="482" y="158" type="line"/>
      <point x="482" y="158"/>
      <point x="370" y="110"/>
      <point x="307" y="110" type="curve" smooth="yes"/>
      <point x="280" y="110"/>
      <point x="264" y="119"/>
      <point x="256" y="125" type="curve" smooth="yes"/>
      <point x="235" y="141"/>
      <point x="208" y="183"/>
      <point x="208" y="290" type="curve" smooth="yes"/>
      <point x="208" y="379"/>
      <point x="223" y="437"/>
      <point x="245" y="457" type="curve" smooth="yes"/>
      <point x="257" y="468"/>
      <point x="280" y="478"/>
      <point x="323" y="478" type="curve" smooth="yes"/>
      <point x="386" y="478"/>
      <point x="453" y="468"/>
      <point x="492" y="462" type="curve"/>
      <point x="509" y="579" type="line"/>
      <point x="477" y="587"/>
      <point x="435" y="597"/>
      <point x="375" y="600" type="curve"/>
      <point x="375" y="693" type="line"/>
      <point x="251" y="693" type="line"/>
      <point x="251" y="593" type="line"/>
      <point x="137" y="570"/>
      <point x="48" y="491"/>
      <point x="48" y="296" type="curve" smooth="yes"/>
      <point x="48" y="108"/>
      <point x="127" y="16"/>
      <point x="251" y="-7" type="curve"/>
    </contour>
  </outline>
</glyph>
<glyph name="ordfeminine" format="2">
  <advance width="437"/>
  <unicode hex="00AA"/>
  <outline>
    <contour>
      <point x="141" y="289" type="curve" smooth="yes"/>
      <point x="201" y="289"/>
      <point x="274" y="336"/>
      <point x="274" y="336" type="curve"/>
      <point x="278" y="336" type="line"/>
      <point x="297" y="298" type="line"/>
      <point x="381" y="298" type="line"/>
      <point x="381" y="557" type="line" smooth="yes"/>
      <point x="381" y="652"/>
      <point x="332" y="713"/>
      <point x="204" y="713" type="curve" smooth="yes"/>
      <point x="139" y="713"/>
      <point x="40" y="683"/>
      <point x="40" y="683" type="curve"/>
      <point x="66" y="588" type="line"/>
      <point x="66" y="588"/>
      <point x="138" y="613"/>
      <point x="196" y="613" type="curve" smooth="yes"/>
      <point x="258" y="613"/>
      <point x="266" y="601"/>
      <point x="266" y="555" type="curve"/>
      <point x="266" y="555"/>
      <point x="217" y="555"/>
      <point x="192" y="555" type="curve" smooth="yes"/>
      <point x="98" y="555"/>
      <point x="27" y="520"/>
      <point x="27" y="426" type="curve" smooth="yes"/>
      <point x="27" y="331"/>
      <point x="75" y="289"/>
    </contour>
    <contour>
      <point x="178" y="389" type="curve" smooth="yes"/>
      <point x="154" y="389"/>
      <point x="143" y="400"/>
      <point x="143" y="426" type="curve" smooth="yes"/>
      <point x="143" y="440"/>
      <point x="149" y="452"/>
      <point x="159" y="457" type="curve" smooth="yes"/>
      <point x="167" y="461"/>
      <point x="180" y="463"/>
      <point x="207" y="463" type="curve" smooth="yes"/>
      <point x="244" y="463"/>
      <point x="266" y="462"/>
      <point x="266" y="462" type="curve"/>
      <point x="266" y="411" type="line"/>
      <point x="266" y="411"/>
      <point x="220" y="389"/>
    </contour>
  </outline>
</glyph>
<glyph name="plusminus" format="2">
  <advance width="594"/>
  <unicode hex="00B1"/>
  <outline>
    <contour>
      <point x="230" y="186" type="line"/>
      <point x="364" y="186" type="line"/>
      <point x="364" y="328" type="line"/>
      <point x="564" y="328" type="line"/>
      <point x="564" y="460" type="line"/>
      <point x="364" y="460" type="line"/>
      <point x="364" y="588" type="line"/>
      <point x="230" y="588" type="line"/>
      <point x="230" y="460" type="line"/>
      <point x="30" y="460" type="line"/>
      <point x="30" y="328" type="line"/>
      <point x="230" y="328" type="line"/>
    </contour>
    <contour>
      <point x="30" y="0" type="line"/>
      <point x="564" y="0" type="line"/>
      <point x="564" y="132" type="line"/>
      <point x="30" y="132" type="line"/>
    </contour>
  </outline>
</glyph>
<glyph name="acute" format="2">
  <advance width="324"/>
  <unicode hex="00B4"/>
  <outline>
    <contour>
      <point x="22" y="646" type="line"/>
      <point x="324" y="704" type="line"/>
      <point x="293" y="816" type="line"/>
      <point x="0" y="727" type="line"/>
    </contour>
  </outline>
</glyph>
<glyph name="guillemotright" format="2">
  <advance width="585"/>
  <unicode hex="00BB"/>
  <outline>
    <contour>
      <point x="131" y="78" type="line"/>
      <point x="290" y="345" type="line"/>
      <point x="131" y="612" type="line"/>
      <point x="17" y="545" type="line"/>
      <point x="138" y="348" type="line"/>
      <point x="138" y="342" type="line"/>
      <point x="17" y="145" type="line"/>
    </contour>
    <contour>
      <point x="406" y="74" type="line"/>
      <point x="567" y="345" type="line"/>
      <point x="406" y="616" type="line"/>
      <point x="291" y="549" type="line"/>
      <point x="415" y="348" type="line"/>
      <point x="415" y="342" type="line"/>
      <point x="291" y="141" type="line"/>
    </contour>
  </outline>
</glyph>
<glyph name="ae" format="2">
  <advance width="952"/>
  <unicode hex="00E6"/>
  <outline>
    <contour>
      <point x="231" y="-13" type="curve" smooth="yes"/>
      <point x="317" y="-13"/>
      <point x="404" y="45"/>
      <point x="452" y="76" type="curve"/>
      <point x="456" y="76" type="line"/>
      <point x="504" y="10"/>
      <point x="577" y="-13"/>
      <point x="668" y="-13" type="curve" smooth="yes"/>
      <point x="782" y="-13"/>
      <point x="898" y="41"/>
      <point x="898" y="41" type="curve"/>
      <point x="860" y="153" type="line"/>
      <point x="860" y="153"/>
      <point x="728" y="110"/>
      <point x="650" y="110" type="curve" smooth="yes"/>
      <point x="621" y="110"/>
      <point x="601" y="117"/>
      <point x="588" y="129" type="curve" smooth="yes"/>
      <point x="575" y="140"/>
      <point x="560" y="170"/>
      <point x="557" y="229" type="curve" smooth="yes"/>
      <point x="557" y="243" type="line"/>
      <point x="909" y="243" type="line"/>
      <point x="909" y="326" type="line" smooth="yes"/>
      <point x="909" y="531"/>
      <point x="821" y="601"/>
      <point x="666" y="601" type="curve" smooth="yes"/>
      <point x="599" y="601"/>
      <point x="542" y="587"/>
      <point x="495" y="552" type="curve"/>
      <point x="491" y="552" type="line"/>
      <point x="456" y="583"/>
      <point x="404" y="601"/>
      <point x="330" y="601" type="curve" smooth="yes"/>
      <point x="187" y="601"/>
      <point x="71" y="549"/>
      <point x="71" y="549" type="curve"/>
      <point x="103" y="437" type="line"/>
      <point x="103" y="437"/>
      <point x="227" y="477"/>
      <point x="328" y="477" type="curve" smooth="yes"/>
      <point x="369" y="477"/>
      <point x="380" y="467"/>
      <point x="386" y="458" type="curve" smooth="yes"/>
      <point x="394" y="448"/>
      <point x="399" y="417"/>
      <point x="399" y="368" type="curve"/>
      <point x="324" y="368" type="line" smooth="yes"/>
      <point x="162" y="368"/>
      <point x="56" y="324"/>
      <point x="56" y="182" type="curve" smooth="yes"/>
      <point x="56" y="56"/>
      <point x="128" y="-13"/>
    </contour>
    <contour>
      <point x="270" y="114" type="curve" smooth="yes"/>
      <point x="230" y="114"/>
      <point x="214" y="135"/>
      <point x="214" y="186" type="curve" smooth="yes"/>
      <point x="214" y="219"/>
      <point x="222" y="235"/>
      <point x="231" y="243" type="curve" smooth="yes"/>
      <point x="243" y="254"/>
      <point x="266" y="258"/>
      <point x="314" y="258" type="curve" smooth="yes"/>
      <point x="363" y="258"/>
      <point x="399" y="253"/>
      <point x="399" y="253" type="curve"/>
      <point x="399" y="152" type="line"/>
      <point x="399" y="152"/>
      <point x="329" y="114"/>
    </contour>
    <contour>
      <point x="558" y="355" type="line"/>
      <point x="560" y="404"/>
      <point x="569" y="436"/>
      <point x="584" y="453" type="curve" smooth="yes"/>
      <point x="597" y="468"/>
      <point x="619" y="479"/>
      <point x="666" y="479" type="curve" smooth="yes"/>
      <point x="709" y="479"/>
      <point x="724" y="468"/>
      <point x="733" y="457" type="curve" smooth="yes"/>
      <point x="745" y="441"/>
      <point x="750" y="410"/>
      <point x="751" y="359" type="curve"/>
    </contour>
  </outline>
</glyph>
<glyph name="dcroat" format="2">
  <advance width="628"/>
  <unicode hex="0111"/>
  <outline>
    <contour>
      <point x="651" y="722" type="line"/>
      <point x="294" y="722" type="line"/>
      <point x="294" y="632" type="line"/>
      <point x="651" y="632" type="line"/>
    </contour>
    <component base="d"/>
  </outline>
</glyph>
<glyph name="imacron" format="2">
  <advance width="311"/>
  <unicode hex="012B"/>
  <outline>
    <contour>
      <point x="-1" y="668" type="line"/>
      <point x="312" y="668" type="line"/>
      <point x="312" y="764" type="line"/>
      <point x="-1" y="764" type="line"/>
    </contour>
    <component base="dotlessi"/>
  </outline>
</glyph>
<glyph name="dotlessi" format="2">
  <advance width="311"/>
  <unicode hex="0131"/>
  <outline>
    <contour>
      <point x="78" y="0" type="line"/>
      <point x="233" y="0" type="line"/>
      <point x="233" y="588" type="line"/>
      <point x="78" y="588" type="line"/>
    </contour>
  </outline>
</glyph>
<glyph name="kgreenlandic" format="2">
  <advance width="605"/>
  <unicode hex="0138"/>
  <outline>
    <contour>
      <point x="446" y="0" type="line"/>
      <point x="190" y="372" type="line"/>
      <point x="190" y="256" type="line"/>
      <point x="425" y="588" type="line"/>
      <point x="612" y="588" type="line"/>
      <point x="390" y="319" type="line"/>
      <point x="390" y="314" type="line"/>
      <point x="636" y="0" type="line"/>
    </contour>
    <contour>
      <point x="79" y="0" type="line"/>
      <point x="234" y="0" type="line"/>
      <point x="234" y="476" type="line"/>
      <point x="182" y="588" type="line"/>
      <point x="79" y="588" type="line"/>
      <point x="83" y="321" type="line"/>
    </contour>
  </outline>
</glyph>
<glyph name="Eng" format="2">
  <advance width="600"/>
  <unicode hex="014A"/>
  <outline>
    <contour>
      <point x="414" y="-99" type="line"/>
      <point x="414" y="-196" type="line"/>
      <point x="457" y="-196" type="line" smooth="yes"/>
      <point x="564" y="-196"/>
      <point x="635" y="-159"/>
      <point x="635" y="-41" type="curve" smooth="yes"/>
      <point x="635" y="-27"/>
      <point x="635" y="-26"/>
      <point x="635" y="0" type="curve"/>
      <point x="434" y="0" type="line"/>
      <point x="445" y="-26"/>
      <point x="463" y="-61"/>
      <point x="463" y="-79" type="curve" smooth="yes"/>
      <point x="463" y="-91"/>
      <point x="448" y="-99"/>
      <point x="432" y="-99" type="curve" smooth="yes"/>
    </contour>
    <component base="N"/>
  </outline>
</glyph>
<glyph name="tbar" format="2">
  <advance width="400"/>
  <unicode hex="0167"/>
  <outline>
    <contour>
      <point x="23" y="329" type="line"/>
      <point x="23" y="239" type="line"/>
      <point x="201" y="243" type="line"/>
      <point x="358" y="239" type="line"/>
      <point x="358" y="329" type="line"/>
    </contour>
    <component base="t"/>
  </outline>
</glyph>
<glyph name="ring" format="2">
  <advance width="211"/>
  <unicode hex="02DA"/>
  <outline>
    <contour>
      <point x="106" y="637" type="curve" smooth="yes"/>
      <point x="158" y="637"/>
      <point x="211" y="658"/>
      <point x="211" y="733" type="curve" smooth="yes"/>
      <point x="211" y="810"/>
      <point x="158" y="830"/>
      <point x="106" y="830" type="curve" smooth="yes"/>
      <point x="55" y="830"/>
      <point x="0" y="810"/>
      <point x="0" y="733" type="curve" smooth="yes"/>
      <point x="0" y="658"/>
      <point x="55" y="637"/>
    </contour>
    <contour>
      <point x="106" y="694" type="curve" smooth="yes"/>
      <point x="77" y="694"/>
      <point x="64" y="703"/>
      <point x="64" y="733" type="curve" smooth="yes"/>
      <point x="64" y="765"/>
      <point x="77" y="771"/>
      <point x="106" y="771" type="curve" smooth="yes"/>
      <point x="135" y="771"/>
      <point x="147" y="765"/>
      <point x="147" y="733" type="curve" smooth="yes"/>
      <point x="147" y="703"/>
      <point x="135" y="694"/>
    </contour>
  </outline>
</glyph>
<glyph name="ogonek" format="2">
  <advance width="183"/>
  <unicode hex="02DB"/>
  <outline>
    <contour>
      <point x="102" y="-179" type="curve" smooth="yes"/>
      <point x="148" y="-179"/>
      <point x="183" y="-170"/>
      <point x="183" y="-170" type="curve"/>
      <point x="183" y="-84" type="line"/>
      <point x="183" y="-84"/>
      <point x="154" y="-88"/>
      <point x="133" y="-88" type="curve" smooth="yes"/>
      <point x="105" y="-88"/>
      <point x="87" y="-82"/>
      <point x="87" y="-66" type="curve" smooth="yes"/>
      <point x="87" y="-42"/>
      <point x="122" y="-18"/>
      <point x="182" y="1" type="curve"/>
      <point x="101" y="21" type="line"/>
      <point x="32" y="-10"/>
      <point x="0" y="-51"/>
      <point x="0" y="-97" type="curve" smooth="yes"/>
      <point x="0" y="-152"/>
      <point x="37" y="-179"/>
    </contour>
  </outline>
</glyph>
<glyph name="tilde" format="2">
  <advance width="407"/>
  <unicode hex="02DC"/>
  <outline>
    <contour>
      <point x="312" y="656" type="curve" smooth="yes"/>
      <point x="368" y="656"/>
      <point x="405" y="692"/>
      <point x="407" y="783" type="curve"/>
      <point x="332" y="795" type="line"/>
      <point x="332" y="795"/>
      <point x="317" y="755"/>
      <point x="301" y="755" type="curve" smooth="yes"/>
      <point x="273" y="755"/>
      <point x="157" y="798"/>
      <point x="97" y="798" type="curve" smooth="yes"/>
      <point x="41" y="798"/>
      <point x="2" y="762"/>
      <point x="0" y="670" type="curve"/>
      <point x="76" y="660" type="line"/>
      <point x="76" y="660"/>
      <point x="92" y="701"/>
      <point x="108" y="701" type="curve" smooth="yes"/>
      <point x="135" y="701"/>
      <point x="253" y="656"/>
    </contour>
  </outline>
</glyph>
<glyph name="hungarumlaut" format="2">
  <advance width="600"/>
  <unicode hex="02DD"/>
  <outline>
    <contour>
      <point x="50" y="622" type="line"/>
      <point x="213" y="730" type="line"/>
      <point x="150" y="816" type="line"/>
      <point x="0" y="689" type="line"/>
    </contour>
    <contour>
      <point x="238" y="622" type="line"/>
      <point x="401" y="730" type="line"/>
      <point x="338" y="816" type="line"/>
      <point x="188" y="689" type="line"/>
    </contour>
  </outline>
</glyph>
<glyph name="hookabovecomb" format="2">
  <unicode hex="0309"/>
  <outline>
    <contour>
      <point x="0" y="761" type="line"/>
      <point x="33" y="761" type="line" smooth="yes"/>
      <point x="65" y="761"/>
      <point x="80" y="753"/>
      <point x="80" y="737" type="curve" smooth="yes"/>
      <point x="80" y="721"/>
      <point x="48" y="699"/>
      <point x="2" y="663" type="curve"/>
      <point x="62" y="610" type="line"/>
      <point x="176" y="684"/>
      <point x="202" y="720"/>
      <point x="202" y="776" type="curve" smooth="yes"/>
      <point x="202" y="824"/>
      <point x="173" y="857"/>
      <point x="79" y="857" type="curve" smooth="yes"/>
      <point x="50" y="857"/>
      <point x="31" y="855"/>
      <point x="0" y="853" type="curve"/>
    </contour>
  </outline>
</glyph>
<glyph name="hungarumlautcomb" format="2">
  <unicode hex="030B"/>
  <anchor x="166" y="585" name="_top"/>
  <anchor x="189" y="765" name="top"/>
  <outline>
    <contour>
      <point x="50" y="622" type="line"/>
      <point x="213" y="730" type="line"/>
      <point x="150" y="816" type="line"/>
      <point x="0" y="689" type="line"/>
    </contour>
    <contour>
      <point x="238" y="622" type="line"/>
      <point x="401" y="730" type="line"/>
      <point x="338" y="816" type="line"/>
      <point x="188" y="689" type="line"/>
    </contour>
  </outline>
</glyph>
<glyph name="Dje-cy" format="2">
  <advance width="759"/>
  <unicode hex="0402"/>
  <outline>
    <contour>
      <point x="151" y="0" type="line"/>
      <point x="306" y="0" type="line"/>
      <point x="306" y="301" type="line"/>
      <point x="339" y="314"/>
      <point x="387" y="328"/>
      <point x="441" y="328" type="curve" smooth="yes"/>
      <point x="494" y="328"/>
      <point x="510" y="322"/>
      <point x="517" y="313" type="curve" smooth="yes"/>
      <point x="527" y="300"/>
      <point x="533" y="270"/>
      <point x="533" y="218" type="curve" smooth="yes"/>
      <point x="533" y="83" type="line" smooth="yes"/>
      <point x="533" y="-20"/>
      <point x="530" y="-38"/>
      <point x="487" y="-38" type="curve" smooth="yes"/>
      <point x="458" y="-38"/>
      <point x="404" y="-30"/>
      <point x="404" y="-30" type="curve"/>
      <point x="388" y="-156" type="line"/>
      <point x="388" y="-156"/>
      <point x="454" y="-166"/>
      <point x="495" y="-166" type="curve" smooth="yes"/>
      <point x="595" y="-166"/>
      <point x="688" y="-105"/>
      <point x="688" y="64" type="curve" smooth="yes"/>
      <point x="688" y="245" type="line" smooth="yes"/>
      <point x="688" y="368"/>
      <point x="659" y="463"/>
      <point x="517" y="463" type="curve" smooth="yes"/>
      <point x="423" y="463"/>
      <point x="347" y="436"/>
      <point x="306" y="418" type="curve"/>
      <point x="306" y="570" type="line"/>
      <point x="476" y="569" type="line"/>
      <point x="476" y="703" type="line"/>
      <point x="0" y="703" type="line"/>
      <point x="0" y="569" type="line"/>
      <point x="151" y="570" type="line"/>
    </contour>
  </outline>
</glyph>
<glyph name="Lje-cy" format="2">
  <advance width="999"/>
  <unicode hex="0409"/>
  <outline>
    <contour>
      <point x="27" y="-14" type="line"/>
      <point x="5" y="91" type="line"/>
      <point x="29" y="94"/>
      <point x="43" y="97"/>
      <point x="54" y="101" type="curve" smooth="yes"/>
      <point x="93" y="115"/>
      <point x="111" y="136"/>
      <point x="118" y="241" type="curve" smooth="yes"/>
      <point x="150" y="703" type="line"/>
      <point x="299" y="703" type="line"/>
      <point x="265" y="209" type="line" smooth="yes"/>
      <point x="261" y="146"/>
      <point x="252" y="84"/>
      <point x="217" y="49" type="curve" smooth="yes"/>
      <point x="187" y="19"/>
      <point x="152" y="-5"/>
      <point x="69" y="-11" type="curve" smooth="yes"/>
    </contour>
    <component base="Ge-cy" xScale="-1" xOffset="680"/>
    <component base="Softsign-cy" xOffset="364"/>
  </outline>
</glyph>
<glyph name="Tshe-cy" format="2">
  <advance width="754"/>
  <unicode hex="040B"/>
  <outline>
    <contour>
      <point x="151" y="0" type="line"/>
      <point x="306" y="0" type="line"/>
      <point x="306" y="301" type="line"/>
      <point x="339" y="314"/>
      <point x="387" y="328"/>
      <point x="441" y="328" type="curve" smooth="yes"/>
      <point x="494" y="328"/>
      <point x="510" y="322"/>
      <point x="517" y="313" type="curve" smooth="yes"/>
      <point x="527" y="300"/>
      <point x="533" y="270"/>
      <point x="533" y="218" type="curve" smooth="yes"/>
      <point x="533" y="0" type="line"/>
      <point x="688" y="0" type="line"/>
      <point x="688" y="245" type="line" smooth="yes"/>
      <point x="688" y="368"/>
      <point x="659" y="463"/>
      <point x="517" y="463" type="curve" smooth="yes"/>
      <point x="423" y="463"/>
      <point x="347" y="436"/>
      <point x="306" y="418" type="curve"/>
      <point x="306" y="703" type="line"/>
      <point x="151" y="703" type="line"/>
    </contour>
    <contour>
      <point x="0" y="569" type="line"/>
      <point x="243" y="571" type="line"/>
      <point x="476" y="569" type="line"/>
      <point x="476" y="703" type="line"/>
      <point x="0" y="703" type="line"/>
    </contour>
  </outline>
</glyph>
<glyph name="Dzhe-cy" format="2">
  <advance width="696"/>
  <unicode hex="040F"/>
  <outline>
    <contour>
      <point x="83" y="0" type="line"/>
      <point x="613" y="0" type="line"/>
      <point x="613" y="703" type="line"/>
      <point x="456" y="703" type="line"/>
      <point x="461" y="358" type="line"/>
      <point x="461" y="64" type="line"/>
      <point x="531" y="134" type="line"/>
      <point x="165" y="134" type="line"/>
      <point x="235" y="64" type="line"/>
      <point x="235" y="358" type="line"/>
      <point x="240" y="703" type="line"/>
      <point x="83" y="703" type="line"/>
    </contour>
    <contour>
      <point x="269" y="79" type="line"/>
      <point x="281" y="-166" type="line"/>
      <point x="429" y="-166" type="line"/>
      <point x="429" y="81" type="line"/>
    </contour>
  </outline>
</glyph>
<glyph name="Be-cy" format="2">
  <advance width="625"/>
  <unicode hex="0411"/>
  <outline>
    <contour>
      <point x="83" y="0" type="line"/>
      <point x="123" y="-6"/>
      <point x="223" y="-13"/>
      <point x="300" y="-13" type="curve" smooth="yes"/>
      <point x="519" y="-13"/>
      <point x="587" y="65"/>
      <point x="587" y="207" type="curve" smooth="yes"/>
      <point x="587" y="395"/>
      <point x="488" y="443"/>
      <point x="302" y="443" type="curve" smooth="yes"/>
      <point x="278" y="443"/>
      <point x="256" y="442"/>
      <point x="237" y="440" type="curve"/>
      <point x="236" y="572" type="line"/>
      <point x="505" y="569" type="line"/>
      <point x="505" y="703" type="line"/>
      <point x="83" y="703" type="line"/>
      <point x="84" y="354" type="line"/>
    </contour>
    <contour>
      <point x="306" y="313" type="curve" smooth="yes"/>
      <point x="362" y="313"/>
      <point x="383" y="311"/>
      <point x="404" y="291" type="curve" smooth="yes"/>
      <point x="423" y="273"/>
      <point x="424" y="239"/>
      <point x="424" y="212" type="curve" smooth="yes"/>
      <point x="424" y="177"/>
      <point x="411" y="148"/>
      <point x="397" y="138" type="curve" smooth="yes"/>
      <point x="384" y="129"/>
      <point x="358" y="125"/>
      <point x="299" y="125" type="curve" smooth="yes"/>
      <point x="278" y="125"/>
      <point x="258" y="126"/>
      <point x="239" y="127" type="curve"/>
      <point x="238" y="309" type="line"/>
      <point x="261" y="311"/>
      <point x="285" y="313"/>
    </contour>
  </outline>
</glyph>
<glyph name="El-cy" format="2">
  <advance width="695"/>
  <unicode hex="041B"/>
  <outline>
    <contour>
      <point x="27" y="-14" type="line"/>
      <point x="108" y="-13"/>
      <point x="164" y="8"/>
      <point x="190" y="25" type="curve" smooth="yes"/>
      <point x="242" y="60.0"/>
      <point x="258" y="114"/>
      <point x="265" y="209" type="curve" smooth="yes"/>
      <point x="290" y="570" type="line"/>
      <point x="459" y="572" type="line"/>
      <point x="455" y="0" type="line"/>
      <point x="612" y="0" type="line"/>
      <point x="612" y="703" type="line"/>
      <point x="150" y="703" type="line"/>
      <point x="118" y="241" type="line" smooth="yes"/>
      <point x="111" y="136"/>
      <point x="93" y="115"/>
      <point x="54" y="101" type="curve" smooth="yes"/>
      <point x="43" y="97"/>
      <point x="29" y="94"/>
      <point x="5" y="91" type="curve"/>
    </contour>
  </outline>
</glyph>
<glyph name="Che-cy" format="2">
  <advance width="685"/>
  <unicode hex="0427"/>
  <outline>
    <contour>
      <point x="447" y="0" type="line"/>
      <point x="602" y="0" type="line"/>
      <point x="602" y="703" type="line"/>
      <point x="447" y="703" type="line"/>
      <point x="447" y="399" type="line"/>
      <point x="410" y="385"/>
      <point x="348" y="371"/>
      <point x="301" y="371" type="curve" smooth="yes"/>
      <point x="258" y="371"/>
      <point x="240" y="376"/>
      <point x="231" y="387" type="curve" smooth="yes"/>
      <point x="219" y="401"/>
      <point x="220" y="418"/>
      <point x="220" y="461" type="curve" smooth="yes"/>
      <point x="220" y="703" type="line"/>
      <point x="65" y="703" type="line"/>
      <point x="65" y="454" type="line" smooth="yes"/>
      <point x="65" y="331"/>
      <point x="94" y="236"/>
      <point x="236" y="236" type="curve" smooth="yes"/>
      <point x="325" y="236"/>
      <point x="399" y="261"/>
      <point x="447" y="277" type="curve"/>
    </contour>
  </outline>
</glyph>
<glyph name="de-cy" format="2">
  <advance width="751"/>
  <unicode hex="0434"/>
  <outline>
    <contour>
      <point x="554" y="588" type="line"/>
      <point x="233" y="588" type="line"/>
      <point x="233" y="460" type="line"/>
      <point x="556" y="460" type="line"/>
    </contour>
    <contour>
      <point x="628" y="0" type="line"/>
      <point x="628" y="588" type="line"/>
      <point x="473" y="588" type="line"/>
      <point x="473" y="0" type="line"/>
    </contour>
    <contour>
      <point x="56" y="-7" type="line"/>
      <point x="78" y="-11"/>
      <point x="102" y="-13"/>
      <point x="127" y="-13" type="curve" smooth="yes"/>
      <point x="228" y="-13"/>
      <point x="288" y="56"/>
      <point x="297" y="174" type="curve" smooth="yes"/>
      <point x="329" y="588" type="line"/>
      <point x="177" y="588" type="line"/>
      <point x="145" y="228" type="line" smooth="yes"/>
      <point x="140" y="171"/>
      <point x="138" y="144"/>
      <point x="106" y="129" type="curve" smooth="yes"/>
      <point x="83" y="118"/>
      <point x="57" y="115"/>
      <point x="30" y="116" type="curve"/>
    </contour>
    <contour>
      <point x="554" y="588" type="line"/>
      <point x="233" y="588" type="line"/>
      <point x="233" y="460" type="line"/>
      <point x="556" y="460" type="line"/>
    </contour>
    <contour>
      <point x="30" y="-127" type="line"/>
      <point x="177" y="-127" type="line"/>
      <point x="177" y="47" type="line"/>
      <point x="127" y="-12" type="line"/>
      <point x="614" y="-12" type="line"/>
      <point x="564" y="47" type="line"/>
      <point x="564" y="-127" type="line"/>
      <point x="711" y="-127" type="line"/>
      <point x="711" y="116" type="line"/>
      <point x="30" y="116" type="line"/>
    </contour>
  </outline>
</glyph>
<glyph name="ii-cy" format="2">
  <advance width="720"/>
  <unicode hex="0438"/>
  <anchor x="357" y="0" name="bottom"/>
  <anchor x="357" y="703" name="top"/>
  <outline>
    <contour>
      <point x="637" y="0" type="line"/>
      <point x="637" y="588" type="line"/>
      <point x="435" y="588" type="line"/>
      <point x="222" y="176" type="line"/>
      <point x="218" y="176" type="line"/>
      <point x="228" y="588" type="line"/>
      <point x="83" y="588" type="line"/>
      <point x="86" y="0" type="line"/>
      <point x="276" y="0" type="line"/>
      <point x="500" y="436" type="line"/>
      <point x="503" y="436" type="line"/>
      <point x="492" y="0" type="line"/>
    </contour>
  </outline>
</glyph>
<glyph name="ef-cy" format="2">
  <advance width="812"/>
  <unicode hex="0444"/>
  <outline>
    <contour>
      <point x="407" y="-14" type="curve" smooth="yes"/>
      <point x="692" y="-14"/>
      <point x="754" y="104"/>
      <point x="754" y="293" type="curve" smooth="yes"/>
      <point x="754" y="482"/>
      <point x="692" y="600"/>
      <point x="407" y="600" type="curve" smooth="yes"/>
      <point x="122" y="600"/>
      <point x="58" y="482"/>
      <point x="58" y="293" type="curve" smooth="yes"/>
      <point x="58" y="104"/>
      <point x="122" y="-14"/>
    </contour>
    <contour>
      <point x="407" y="107" type="curve" smooth="yes"/>
      <point x="239" y="107"/>
      <point x="216" y="143"/>
      <point x="216" y="293" type="curve" smooth="yes"/>
      <point x="216" y="444"/>
      <point x="240" y="479"/>
      <point x="407" y="479" type="curve" smooth="yes"/>
      <point x="573" y="479"/>
      <point x="596" y="444"/>
      <point x="596" y="293" type="curve" smooth="yes"/>
      <point x="596" y="143"/>
      <point x="574" y="107"/>
    </contour>
    <contour>
      <point x="335" y="-180" type="line"/>
      <point x="476" y="-180" type="line"/>
      <point x="473" y="331" type="line"/>
      <point x="476" y="775" type="line"/>
      <point x="335" y="775" type="line"/>
      <point x="339" y="265" type="line"/>
    </contour>
  </outline>
</glyph>
<glyph name="tse-cy" format="2">
  <advance width="707"/>
  <unicode hex="0446"/>
  <outline>
    <contour>
      <point x="117" y="0" type="line"/>
      <point x="532" y="0" type="line"/>
      <point x="532" y="130" type="line"/>
      <point x="115" y="128" type="line"/>
    </contour>
    <contour>
      <point x="83" y="588" type="line"/>
      <point x="83" y="0" type="line"/>
      <point x="238" y="0" type="line"/>
      <point x="238" y="588" type="line"/>
    </contour>
    <contour>
      <point x="572" y="588" type="line"/>
      <point x="417" y="588" type="line"/>
      <point x="417" y="0" type="line"/>
      <point x="572" y="0" type="line"/>
    </contour>
    <contour>
      <point x="514" y="-155" type="line"/>
      <point x="654" y="-155" type="line"/>
      <point x="654" y="74" type="line"/>
      <point x="494" y="74" type="line"/>
    </contour>
  </outline>
</glyph>
<glyph name="yat-cy" format="2">
  <advance width="737"/>
  <unicode hex="0463"/>
  <outline>
    <contour>
      <point x="50" y="508" type="line"/>
      <point x="202" y="511" type="line"/>
      <point x="532" y="508" type="line"/>
      <point x="532" y="620" type="line"/>
      <point x="50" y="620" type="line"/>
    </contour>
    <contour>
      <point x="438" y="-13" type="curve" smooth="yes"/>
      <point x="566" y="-13"/>
      <point x="689" y="46"/>
      <point x="689" y="204" type="curve" smooth="yes"/>
      <point x="689" y="327"/>
      <point x="606" y="415"/>
      <point x="471" y="415" type="curve" smooth="yes"/>
      <point x="402" y="415"/>
      <point x="329" y="400"/>
      <point x="329" y="400" type="curve"/>
      <point x="329" y="761" type="line"/>
      <point x="174" y="761" type="line"/>
      <point x="174" y="31" type="line"/>
      <point x="249" y="8"/>
      <point x="369" y="-13"/>
    </contour>
    <contour>
      <point x="428" y="124" type="curve" smooth="yes"/>
      <point x="381" y="124"/>
      <point x="329" y="134"/>
      <point x="329" y="134" type="curve"/>
      <point x="329" y="268" type="line"/>
      <point x="329" y="268"/>
      <point x="380" y="281"/>
      <point x="435" y="281" type="curve" smooth="yes"/>
      <point x="481" y="281"/>
      <point x="502" y="274"/>
      <point x="512" y="264" type="curve" smooth="yes"/>
      <point x="528" y="248"/>
      <point x="531" y="221"/>
      <point x="531" y="206" type="curve" smooth="yes"/>
      <point x="531" y="182"/>
      <point x="523" y="151"/>
      <point x="506" y="137" type="curve" smooth="yes"/>
      <point x="495" y="128"/>
      <point x="469" y="124"/>
    </contour>
  </outline>
</glyph>
<glyph name="Izhitsa-cy" format="2">
  <advance width="672"/>
  <unicode hex="0474"/>
  <outline>
    <contour>
      <point x="224" y="0" type="line"/>
      <point x="421" y="0" type="line"/>
      <point x="512" y="355" type="line"/>
      <point x="398" y="492" type="line"/>
      <point x="309" y="79" type="line"/>
      <point x="389" y="147" type="line"/>
      <point x="243" y="147" type="line"/>
      <point x="326" y="79" type="line"/>
      <point x="171" y="645" type="line"/>
      <point x="6" y="645" type="line"/>
    </contour>
    <contour>
      <point x="660" y="711" type="line"/>
      <point x="642" y="716"/>
      <point x="619" y="717"/>
      <point x="597" y="717" type="curve" smooth="yes"/>
      <point x="563" y="717"/>
      <point x="524" y="714"/>
      <point x="496" y="693" type="curve" smooth="yes"/>
      <point x="446" y="656"/>
      <point x="423" y="612"/>
      <point x="402" y="511" type="curve" smooth="yes"/>
      <point x="377" y="391" type="line"/>
      <point x="479" y="228" type="line"/>
      <point x="559" y="536" type="line" smooth="yes"/>
      <point x="565" y="560"/>
      <point x="583" y="576"/>
      <point x="604" y="576" type="curve" smooth="yes"/>
      <point x="620" y="576"/>
      <point x="633" y="573"/>
      <point x="646" y="572" type="curve"/>
    </contour>
  </outline>
</glyph>
<glyph name="Gheupturn-cy" format="2">
  <advance width="510"/>
  <unicode hex="0490"/>
  <outline>
    <contour>
      <point x="83" y="0" type="line"/>
      <point x="240" y="0" type="line"/>
      <point x="236" y="572" type="line"/>
      <point x="505" y="569" type="line"/>
      <point x="505" y="817" type="line"/>
      <point x="388" y="817" type="line"/>
      <point x="363" y="703" type="line"/>
      <point x="83" y="703" type="line"/>
    </contour>
  </outline>
</glyph>
<glyph name="Ghestroke-cy" format="2">
  <advance width="582"/>
  <unicode hex="0492"/>
  <outline>
    <contour>
      <point x="129" y="0" type="line"/>
      <point x="286" y="0" type="line"/>
      <point x="283" y="336" type="line"/>
      <point x="280" y="651" type="line"/>
      <point x="211" y="572" type="line"/>
      <point x="550" y="569" type="line"/>
      <point x="550" y="703" type="line"/>
      <point x="129" y="703" type="line"/>
    </contour>
    <contour>
      <point x="25" y="407" type="line"/>
      <point x="25" y="273" type="line"/>
      <point x="180" y="276" type="line"/>
      <point x="455" y="273" type="line"/>
      <point x="455" y="407" type="line"/>
    </contour>
  </outline>
</glyph>
<glyph name="Hadescender-cy" format="2">
  <advance width="628"/>
  <unicode hex="04B2"/>
  <outline>
    <contour>
      <point x="553" y="-156" type="line"/>
      <point x="666" y="-156" type="line"/>
      <point x="666" y="74" type="line"/>
      <point x="526" y="74" type="line"/>
    </contour>
    <component base="Ha-cy"/>
  </outline>
</glyph>
<glyph name="Shha-cy" format="2">
  <advance width="685"/>
  <unicode hex="04BA"/>
  <outline>
    <contour>
      <point x="83" y="0" type="line"/>
      <point x="238" y="0" type="line"/>
      <point x="238" y="323" type="line"/>
      <point x="271" y="336"/>
      <point x="321" y="350"/>
      <point x="384" y="350" type="curve" smooth="yes"/>
      <point x="427" y="350"/>
      <point x="445" y="345"/>
      <point x="454" y="334" type="curve" smooth="yes"/>
      <point x="466" y="320"/>
      <point x="465" y="303"/>
      <point x="465" y="260" type="curve" smooth="yes"/>
      <point x="465" y="0" type="line"/>
      <point x="620" y="0" type="line"/>
      <point x="620" y="267" type="line" smooth="yes"/>
      <point x="620" y="390"/>
      <point x="591" y="485"/>
      <point x="449" y="485" type="curve" smooth="yes"/>
      <point x="356" y="485"/>
      <point x="280" y="458"/>
      <point x="238" y="443" type="curve"/>
      <point x="238" y="703" type="line"/>
      <point x="83" y="703" type="line"/>
    </contour>
  </outline>
</glyph>
<glyph name="Schwa-cy" format="2">
  <advance width="611"/>
  <unicode hex="04D8"/>
  <outline>
    <contour>
      <point x="61" y="548" type="curve"/>
      <point x="99" y="436" type="line"/>
      <point x="120" y="443"/>
      <point x="236" y="479"/>
      <point x="309" y="479" type="curve" smooth="yes"/>
      <point x="342" y="479"/>
      <point x="362" y="472"/>
      <point x="375" y="460" type="curve" smooth="yes"/>
      <point x="396" y="442"/>
      <point x="404" y="407"/>
      <point x="406" y="348" type="curve"/>
      <point x="50" y="348" type="line"/>
      <point x="50" y="265" type="line" smooth="yes"/>
      <point x="50" y="59"/>
      <point x="138" y="-14"/>
      <point x="293" y="-14" type="curve" smooth="yes"/>
      <point x="445" y="-14"/>
      <point x="563" y="58"/>
      <point x="563" y="293" type="curve" smooth="yes"/>
      <point x="563" y="520"/>
      <point x="454" y="602"/>
      <point x="291" y="602" type="curve" smooth="yes"/>
      <point x="182" y="602"/>
      <point x="80" y="557"/>
    </contour>
    <contour>
      <point x="208" y="232" type="curve"/>
      <point x="406" y="236" type="line"/>
      <point x="404" y="186"/>
      <point x="395" y="151"/>
      <point x="379" y="134" type="curve" smooth="yes"/>
      <point x="366" y="119"/>
      <point x="344" y="108"/>
      <point x="293" y="108" type="curve" smooth="yes"/>
      <point x="250" y="108"/>
      <point x="235" y="119"/>
      <point x="226" y="130" type="curve" smooth="yes"/>
      <point x="214" y="146"/>
      <point x="209" y="180"/>
    </contour>
  </outline>
</glyph>
<glyph name="schwa-cy" format="2">
  <advance width="604"/>
  <unicode hex="04D9"/>
  <outline>
    <contour>
      <point x="284" y="602" type="curve" smooth="yes"/>
      <point x="210" y="602"/>
      <point x="116" y="584"/>
      <point x="49" y="557" type="curve"/>
      <point x="88" y="445" type="line"/>
      <point x="214" y="474"/>
      <point x="258" y="475"/>
      <point x="292" y="477" type="curve" smooth="yes"/>
      <point x="335" y="479"/>
      <point x="355" y="472"/>
      <point x="368" y="460" type="curve" smooth="yes"/>
      <point x="382" y="448"/>
      <point x="399" y="407"/>
      <point x="399" y="326" type="curve"/>
      <point x="469" y="348" type="line"/>
      <point x="43" y="348" type="line"/>
      <point x="43" y="265" type="line" smooth="yes"/>
      <point x="43" y="59"/>
      <point x="131" y="-14"/>
      <point x="286" y="-14" type="curve" smooth="yes"/>
      <point x="438" y="-14"/>
      <point x="556" y="58"/>
      <point x="556" y="293" type="curve" smooth="yes"/>
      <point x="556" y="520"/>
      <point x="447" y="602"/>
    </contour>
    <contour>
      <point x="399" y="258" type="line"/>
      <point x="399" y="196"/>
      <point x="390" y="153"/>
      <point x="372" y="134" type="curve" smooth="yes"/>
      <point x="359" y="119"/>
      <point x="337" y="108"/>
      <point x="286" y="108" type="curve" smooth="yes"/>
      <point x="243" y="108"/>
      <point x="228" y="119"/>
      <point x="219" y="130" type="curve" smooth="yes"/>
      <point x="206" y="148"/>
      <point x="201" y="189"/>
      <point x="201" y="253" type="curve"/>
      <point x="131" y="231" type="line"/>
      <point x="468" y="237" type="line"/>
    </contour>
  </outline>
</glyph>
<glyph name="obarred-cy" format="2">
  <advance width="600"/>
  <unicode hex="04E9"/>
  <outline>
    <contour>
      <point x="79" y="234" type="line"/>
      <point x="286" y="235" type="line"/>
      <point x="495" y="234" type="line"/>
      <point x="495" y="348" type="line"/>
      <point x="79" y="348" type="line"/>
    </contour>
    <component base="o"/>
  </outline>
</glyph>
<glyph name="quotedblleft" format="2">
  <advance width="456"/>
  <unicode hex="201C"/>
  <outline>
    <contour>
      <point x="42" y="446" type="curve"/>
      <point x="173" y="446" type="line"/>
      <point x="173" y="446"/>
      <point x="167" y="526"/>
      <point x="167" y="569" type="curve" smooth="yes"/>
      <point x="167" y="628"/>
      <point x="176" y="677"/>
      <point x="191" y="707" type="curve"/>
      <point x="111" y="749" type="line"/>
      <point x="76" y="711"/>
      <point x="37" y="632"/>
      <point x="37" y="521" type="curve" smooth="yes"/>
      <point x="37" y="485"/>
      <point x="42" y="446"/>
    </contour>
    <contour>
      <point x="269" y="446" type="curve"/>
      <point x="401" y="446" type="line"/>
      <point x="401" y="446"/>
      <point x="395" y="521"/>
      <point x="395" y="564" type="curve" smooth="yes"/>
      <point x="395" y="623"/>
      <point x="402" y="662"/>
      <point x="418" y="692" type="curve"/>
      <point x="346" y="731" type="line"/>
      <point x="310" y="693"/>
      <point x="265" y="627"/>
      <point x="265" y="516" type="curve" smooth="yes"/>
      <point x="265" y="480"/>
      <point x="269" y="446"/>
    </contour>
  </outline>
</glyph>
<glyph name="fraction" format="2">
  <advance width="481"/>
  <unicode hex="2044"/>
  <outline>
    <contour>
      <point x="-25" y="-9" type="line"/>
      <point x="120" y="-9" type="line"/>
      <point x="299" y="343" type="line"/>
      <point x="506" y="733" type="line"/>
      <point x="362" y="733" type="line"/>
      <point x="204" y="406" type="line"/>
    </contour>
  </outline>
</glyph>
<glyph name="brevecomb.case" format="2">
  <outline>
    <contour>
      <point x="195" y="747" type="curve" smooth="yes"/>
      <point x="296" y="747"/>
      <point x="380" y="789"/>
      <point x="390" y="911" type="curve"/>
      <point x="310" y="918" type="line"/>
      <point x="297" y="860"/>
      <point x="258" y="846"/>
      <point x="195" y="846" type="curve" smooth="yes"/>
      <point x="132" y="846"/>
      <point x="93" y="860"/>
      <point x="80" y="918" type="curve"/>
      <point x="0" y="911" type="line"/>
      <point x="9" y="789"/>
      <point x="94" y="747"/>
    </contour>
  </outline>
</glyph>
<glyph name="circumflexcomb.case" format="2">
  <anchor x="205" y="703" name="_top"/>
  <anchor x="197" y="866" name="top"/>
  <outline>
    <contour>
      <point x="33" y="740" type="line"/>
      <point x="200" y="799" type="line"/>
      <point x="207" y="799" type="line"/>
      <point x="374" y="740" type="line"/>
      <point x="407" y="801" type="line"/>
      <point x="240" y="901" type="line"/>
      <point x="167" y="901" type="line"/>
      <point x="0" y="801" type="line"/>
    </contour>
  </outline>
</glyph>
<glyph name="tildecomb.case" format="2">
  <outline>
    <contour>
      <point x="312" y="750" type="curve" smooth="yes"/>
      <point x="368" y="750"/>
      <point x="405" y="786"/>
      <point x="407" y="875" type="curve"/>
      <point x="332" y="887" type="line"/>
      <point x="332" y="887"/>
      <point x="317" y="847"/>
      <point x="301" y="847" type="curve" smooth="yes"/>
      <point x="273" y="847"/>
      <point x="157" y="890"/>
      <point x="97" y="890" type="curve" smooth="yes"/>
      <point x="41" y="890"/>
      <point x="2" y="854"/>
      <point x="0" y="764" type="curve"/>
      <point x="76" y="754" type="line"/>
      <point x="76" y="754"/>
      <point x="92" y="795"/>
      <point x="108" y="795" type="curve" smooth="yes"/>
      <point x="135" y="795"/>
      <point x="253" y="750"/>
    </contour>
  </outline>
</glyph>
<glyph name="tildecombo" format="2">
  <advance width="407"/>
  <outline>
    <contour>
      <point x="301" y="656.0" type="curve" smooth="yes"/>
      <point x="352" y="656.0"/>
      <point x="385" y="692.0"/>
      <point x="387" y="783.0" type="curve"/>
      <point x="319" y="795.0" type="line"/>
      <point x="319" y="795.0"/>
      <point x="306" y="755.0"/>
      <point x="291" y="755.0" type="curve" smooth="yes"/>
      <point x="266" y="755.0"/>
      <point x="162" y="798.0"/>
      <point x="108" y="798.0" type="curve" smooth="yes"/>
      <point x="57" y="798.0"/>
      <point x="22" y="762.0"/>
      <point x="20" y="670.0" type="curve"/>
      <point x="89" y="660.0" type="line"/>
      <point x="89" y="660.0"/>
      <point x="103" y="701.0"/>
      <point x="118" y="701.0" type="curve" smooth="yes"/>
      <point x="142" y="701.0"/>
      <point x="248" y="656.0"/>
    </contour>
  </outline>
</glyph>
